<svg id="Capa_1" data-name="Capa 1" xmlns="http://www.w3.org/2000/svg" viewBox="0 0 828.73 399.07"><defs><style>.cls-1,.cls-2{fill:#00d8d8;}.cls-2{font-size:61.27px;font-family:Formular, Formular;}</style></defs><title>logosvg</title><path class="cls-1" d="M941,692.49c0,27.86.42,55.73-.13,83.59-.44,22.57-5.74,44.11-17.77,63.56-14.36,23.21-35.29,36.72-62,41.45-16.53,2.93-32.68,1.55-48.08-5.26-24.17-10.69-38.36-29.08-41.41-55.56-2.35-20.39,3.35-38.48,16.61-54.06,9.35-11,21.08-18.88,34.16-24.8,15.74-7.13,32.35-10.8,49.49-12.38,11.14-1,22.26-2.33,33.39-3.47,1.8-.19,2.67-.85,2.65-2.87-.08-10.55,0-21.1,0-31.65,0-.69.32-1.59-.46-2s-1.16.42-1.67.77c-11.3,7.76-23.7,12.85-37.33,14.27-34.18,3.56-67.78-14.57-78-51.93-5.91-21.61-2.52-42.07,8.57-61.39,9.32-16.22,22.33-28.37,39.64-35.68a93.4,93.4,0,0,1,29.4-6.79,89.68,89.68,0,0,1,26.67,1.6c25.34,5.66,40.11,21.58,45.06,46.87A69.84,69.84,0,0,1,941,610.65c0,.58,0,1.16,0,1.75q0,40,0,80.1Zm-33.15,76.73c0-2.84,0-5.67,0-8.51,0-1.54-.32-2.19-2.12-2-13.65,1.51-27.36,2.52-40.94,4.55-15.27,2.28-29.78,6.92-42.39,16.18-12,8.82-19.3,20.12-18.09,35.78,1.11,14.42,8.33,24.44,21.44,30,15.17,6.48,30.34,5,45.11-1.46,15.18-6.66,24.36-18.91,30.18-34C906.1,796.79,907.93,783.16,907.83,769.22Zm.83-152.84a100.47,100.47,0,0,0-.43-12.62c-1.66-12.21-8.61-19.81-20.69-22.23-10.4-2.09-20.67-1.24-30.85,1.49-24.32,6.52-40,31.81-36.68,55,2.71,18.8,16.82,32.69,35.73,34.3s38.16-9,46.93-25.92A56.51,56.51,0,0,0,908.66,616.38Z" transform="translate(-268.64 -483.47)"/><path class="cls-1" d="M370.42,616.62c2-1.18,3-2.78,4.2-4.07q13-13.43,25.87-26.88Q420.24,565,439.92,544.3a1.91,1.91,0,0,1,2.66-.45q11.41,6,22.86,11.85c2.1,1.08.63,1.95-.14,2.76-6.65,7-13.34,14-20,21-5.4,5.7-10.73,11.47-16.14,17.16a2.53,2.53,0,0,0-.48,3.41c8,15.83,15.95,31.72,23.93,47.57q12.7,25.25,25.45,50.47c1.46,2.9,1.35,3.07-2,3.07-9.75,0-19.5,0-29.25,0a4.1,4.1,0,0,1-4.22-2.6q-17.22-34-34.59-67.85l-.3-.58c-2.2-4.2-3.48-4.81-8.11-4a3.77,3.77,0,0,0-2.12,1.42q-9.54,10.49-19.06,21c-2.05,2.26-4,4.62-6.17,6.77a6.21,6.21,0,0,0-1.91,4.84c.07,12.51,0,25,0,37.54,0,3.33-.08,3.41-3.44,3.41-9,0-18,0-27.06,0-2.07,0-2.77-.65-2.76-2.76q.07-104,0-208c0-2.11.7-2.77,2.77-2.75,9,.08,18,0,27.06,0,3.35,0,3.43.08,3.43,3.41q0,61.11,0,122.22Z" transform="translate(-268.64 -483.47)"/><path class="cls-1" d="M560.73,635.78H508.34c-3.63,0-3.68,0-3,3.46,2.72,12.89,8.77,23.53,20.69,30.07a39.41,39.41,0,0,0,17.09,4.8c8,.42,15.85-.21,23.32-3.42,5.81-2.49,10.78-6.08,14.2-11.48,1-1.62,2-1.71,3.54-.88,7.46,3.94,14.94,7.85,22.49,11.62,2,1,2.08,1.87,1,3.65a60.13,60.13,0,0,1-30.93,25.76c-18.4,7-37.13,7.61-55.74,1-20.8-7.38-34.77-22-42-42.66-8.35-23.88-7.74-47.79,3.43-70.66,11-22.55,29.47-35.53,54.48-38.66,14.08-1.77,27.78,0,40.55,6.49,18.69,9.57,30.21,25,36.06,45A73.16,73.16,0,0,1,616.31,619c.1,4.65.34,9.3.28,14,0,2.72-.13,2.84-2.83,2.84Zm-15.36-28.49h16.57c6.62,0,13.23,0,19.85,0,1.45,0,2.24-.27,1.66-2-2.29-6.82-5.81-12.85-11.33-17.54-8.71-7.39-18.78-10.34-30.15-9.27-16.85,1.59-27.69,10.85-33.9,26.15-1.06,2.61-1,2.66,2,2.66Z" transform="translate(-268.64 -483.47)"/><path class="cls-1" d="M717.82,635.78h-52.6c-3.29,0-3.32,0-2.64,3.31,2.41,11.77,7.64,21.8,18,28.57a39.93,39.93,0,0,0,21,6.5c7.56.25,15-.41,22-3.42,5.9-2.51,10.9-6.13,14.37-11.6,1-1.5,1.85-1.67,3.38-.86q11.39,6,22.87,11.82c1.69.85,1.79,1.71.91,3.22a59.21,59.21,0,0,1-21.57,21.43,73.61,73.61,0,0,1-31.42,9.67c-14.14,1.24-27.76-.59-40.59-6.8-18.55-9-30.45-23.83-36.42-43.29-6.42-20.9-6.05-41.89,2.33-62.2,10.5-25.44,29.62-40.33,57.07-43.76,17.25-2.16,33.59,1,48,11.11,18,12.69,27.89,30.4,30.54,52.2.87,7.16.74,14.36.79,21.56,0,2.05-.79,2.58-2.72,2.58C753.33,635.75,735.57,635.77,717.82,635.78Zm-15.19-28.49q18,0,36,0c2.42,0,2.67-.32,1.89-2.49a39,39,0,0,0-8.87-14.86c-9-9-19.93-12.65-32.55-11.46-16.62,1.57-27.47,10.67-33.71,25.79-1.21,2.94-1.14,3,1.94,3Z" transform="translate(-268.64 -483.47)"/><path class="cls-1" d="M1097.35,625.63c.2,15-2.66,28.86-9.22,41.82-8.16,16.14-20.62,27.7-37.86,33.55a71.54,71.54,0,0,1-43.56.89,63.15,63.15,0,0,1-30-18.6c-10.1-11.14-16-24.4-18.52-39.11-3.23-18.52-2.09-36.74,5.4-54.14,10.21-23.71,28.09-38,53.82-41.48,18.92-2.55,36.5,1.54,51.84,13.35,12.5,9.62,20.16,22.54,24.53,37.52A87.69,87.69,0,0,1,1097.35,625.63Zm-31.09-1.75c.21-3.15-.47-7.52-1.38-11.86-2-9.76-6.31-18.28-14.21-24.61-18.27-14.66-51.18-10.18-60.26,19.59a68.72,68.72,0,0,0-2.15,28.46c.87,7.29,2.84,14.29,6.87,20.51,7.83,12.08,19.19,17.75,33.42,17.2,15.25-.58,26.24-8.09,32.81-21.85C1065.32,643.08,1066.34,634.22,1066.26,623.88Z" transform="translate(-268.64 -483.47)"/><text class="cls-2" transform="translate(52.51 85.11) rotate(-90)">my</text></svg>